# xmcd
#
# Track frame offsets: 
#        150
#        16500
#        33844
#        52294
#        66169
#        81994
#        107270
#        117245
#        129320
#
# Disc length: 2101 seconds
#
# Revision: 0
# Processed by: cddbd v1.5.2PL0 Copyright (c) Steve Scherf et al.
# Submitted via: ExactAudioCopy v0.99pb4
#
DISCID=6a083309
DTITLE=Adam Kulisz - Bluesletter
DYEAR=1900
DGENRE=Blues
TTITLE0=Jestem szalony
TTITLE1=Kulisz, tak siê nazywam
TTITLE2=Ciep³o z Tob¹
TTITLE3=Jaromkowy Blues
TTITLE4=Wilczy zew
TTITLE5=Stary dobry blues
TTITLE6=Gorzki smak
TTITLE7=Jimi, Jimi
TTITLE8=Zwyk³e dni
EXTD=
EXTT0=
EXTT1=
EXTT2=
EXTT3=
EXTT4=
EXTT5=
EXTT6=
EXTT7=
EXTT8=
PLAYORDER=
